<?xml version="1.0" standalone="no"?>
<!DOCTYPE svg PUBLIC "-//W3C//DTD SVG 20010904//EN"
 "http://www.w3.org/TR/2001/REC-SVG-20010904/DTD/svg10.dtd">
<svg version="1.0" xmlns="http://www.w3.org/2000/svg"
 width="512.000000pt" height="512.000000pt" viewBox="0 0 512.000000 512.000000"
 preserveAspectRatio="xMidYMid meet">
<metadata>
Created by potrace 1.11, written by Peter Selinger 2001-2013
</metadata>
<g transform="translate(0.000000,512.000000) scale(0.100000,-0.100000)"
fill="red" stroke="none">
<path d="M2315 5109 c-880 -90 -1642 -612 -2042 -1399 -375 -739 -360 -1647
40 -2375 56 -102 194 -315 205 -315 4 0 206 199 449 442 l443 443 105 -105
c58 -58 105 -107 105 -110 0 -4 -26 -37 -58 -76 -32 -38 -98 -118 -147 -179
l-90 -110 75 61 c41 34 122 100 180 148 58 47 107 86 110 85 3 0 28 -27 55
-59 28 -32 54 -59 60 -59 5 -1 26 -18 47 -38 l38 -37 -446 -447 -447 -447 63
-46 c287 -212 666 -374 1024 -441 555 -102 1102 -27 1601 219 279 138 479 282
692 497 211 213 343 400 479 674 127 257 203 507 246 810 17 118 17 512 0 630
-84 592 -328 1089 -733 1494 -396 395 -881 638 -1449 726 -125 19 -477 28
-605 14z m-541 -513 c7 -27 89 -106 111 -106 24 0 18 -17 -9 -24 -27 -7 -106
-89 -106 -111 0 -8 -4 -15 -10 -15 -5 0 -10 7 -10 15 0 22 -79 104 -106 111
-27 7 -33 24 -9 24 22 0 104 79 111 106 4 13 10 24 14 24 4 0 10 -11 14 -24z
m1280 0 c7 -27 89 -106 111 -106 24 0 18 -17 -9 -24 -27 -7 -106 -89 -106
-111 0 -8 -4 -15 -10 -15 -5 0 -10 7 -10 15 0 22 -79 104 -106 111 -33 8 -30
18 11 32 38 14 82 61 91 98 8 31 20 31 28 0z m-2080 -480 c7 -27 89 -106 111
-106 24 0 18 -17 -9 -24 -27 -7 -106 -89 -106 -111 0 -8 -4 -15 -10 -15 -5 0
-10 7 -10 15 0 22 -79 104 -106 111 -27 7 -33 24 -9 24 22 0 104 79 111 106 4
13 10 24 14 24 4 0 10 -11 14 -24z m1440 0 c7 -27 89 -106 111 -106 24 0 18
-17 -9 -24 -27 -7 -106 -89 -106 -111 0 -8 -4 -15 -10 -15 -5 0 -10 7 -10 15
0 22 -79 104 -106 111 -33 8 -30 18 11 32 38 14 82 61 91 98 8 31 20 31 28 0z
m1214 -354 c57 -87 140 -148 262 -189 64 -22 65 -23 63 -57 -3 -50 -92 -311
-156 -459 -192 -442 -494 -850 -827 -1117 -249 -199 -608 -393 -875 -474 -16
-5 -47 21 -152 127 l-131 132 354 290 c195 160 364 297 374 305 19 15 15 20
-92 127 l-113 112 -305 -374 -305 -373 -126 125 -127 126 33 96 c192 566 648
1117 1204 1456 242 147 478 247 811 344 24 7 26 4 50 -69 14 -42 40 -99 58
-128z m-2174 -126 c7 -27 89 -106 111 -106 24 0 18 -17 -9 -24 -27 -7 -106
-89 -106 -111 0 -8 -4 -15 -10 -15 -5 0 -10 7 -10 15 0 22 -79 104 -106 111
-27 7 -33 24 -9 24 22 0 104 79 111 106 4 13 10 24 14 24 4 0 10 -11 14 -24z
m-800 -640 c7 -27 89 -106 111 -106 24 0 18 -17 -9 -24 -27 -7 -106 -89 -106
-111 0 -8 -4 -15 -10 -15 -5 0 -10 7 -10 15 0 22 -79 104 -106 111 -27 7 -33
24 -9 24 22 0 104 79 111 106 4 13 10 24 14 24 4 0 10 -11 14 -24z m3840 0 c7
-27 89 -106 111 -106 24 0 18 -17 -9 -24 -27 -7 -106 -89 -106 -111 0 -8 -4
-15 -10 -15 -5 0 -10 7 -10 15 0 22 -79 104 -106 111 -33 8 -30 18 11 32 38
14 82 61 91 98 8 31 20 31 28 0z m-640 -480 c7 -27 89 -106 111 -106 24 0 18
-17 -9 -24 -27 -7 -106 -89 -106 -111 0 -8 -4 -15 -10 -15 -5 0 -10 7 -10 15
0 22 -79 104 -106 111 -33 8 -30 18 11 32 38 14 82 61 91 98 8 31 20 31 28 0z
m640 -480 c7 -27 89 -106 111 -106 24 0 18 -17 -9 -24 -27 -7 -106 -89 -106
-111 0 -8 -4 -15 -10 -15 -5 0 -10 7 -10 15 0 22 -79 104 -106 111 -33 8 -30
18 11 32 38 14 82 61 91 98 8 31 20 31 28 0z m-960 -320 c7 -27 89 -106 111
-106 24 0 18 -17 -9 -24 -27 -7 -106 -89 -106 -111 0 -8 -4 -15 -10 -15 -5 0
-10 7 -10 15 0 22 -79 104 -106 111 -33 8 -30 18 11 32 38 14 82 61 91 98 8
31 20 31 28 0z m640 -480 c7 -27 89 -106 111 -106 24 0 18 -17 -9 -24 -27 -7
-106 -89 -106 -111 0 -8 -4 -15 -10 -15 -5 0 -10 7 -10 15 0 22 -79 104 -106
111 -27 7 -33 24 -9 24 22 0 104 79 111 106 4 13 10 24 14 24 4 0 10 -11 14
-24z m-960 -320 c7 -27 89 -106 111 -106 24 0 18 -17 -9 -24 -27 -7 -106 -89
-106 -111 0 -8 -4 -15 -10 -15 -5 0 -10 7 -10 15 0 22 -79 104 -106 111 -27 7
-33 24 -9 24 22 0 104 79 111 106 4 13 10 24 14 24 4 0 10 -11 14 -24z"/>
<path d="M3051 3430 c-90 -19 -183 -97 -224 -189 -28 -64 -28 -178 0 -243 29
-65 95 -133 160 -165 79 -38 187 -38 266 0 65 32 131 100 160 165 32 72 29
182 -6 255 -32 63 -100 131 -160 157 -52 23 -138 31 -196 20z m177 -96 c28
-14 66 -44 84 -67 36 -45 72 -117 59 -117 -5 0 -11 -25 -13 -55 -6 -73 -48
-140 -112 -180 -44 -27 -58 -30 -126 -30 -68 0 -82 3 -126 30 -205 127 -115
445 126 445 40 0 71 -7 108 -26z"/>
</g>
</svg>
